<?xml version="1.0" encoding="UTF-8" standalone="no"?>
<!DOCTYPE svg PUBLIC "-//W3C//DTD SVG 1.1//EN" "http://www.w3.org/Graphics/SVG/1.1/DTD/svg11.dtd">
<!-- Created with Vectornator (http://vectornator.io/) -->
<svg height="1024.0px" stroke-miterlimit="10" style="fill-rule:nonzero;clip-rule:evenodd;stroke-linecap:round;stroke-linejoin:round;" version="1.1" viewBox="0 0 1024 1024" width="1024.0px" xml:space="preserve" xmlns="http://www.w3.org/2000/svg" xmlns:xlink="http://www.w3.org/1999/xlink">
<defs/>
<clipPath id="ArtboardFrame">
<rect height="1024" width="1024" x="0" y="0"/>
</clipPath>
<g clip-path="url(#ArtboardFrame)" id="Layer-1">
<path d="M183.958 129.107C157.519 129.107 136.085 150.54 136.085 176.98L136.085 623.482C136.085 649.921 157.519 671.355 183.958 671.355L950.879 671.355C977.319 671.355 998.752 649.921 998.752 623.482L998.752 176.98C998.752 150.54 977.319 129.107 950.879 129.107L183.958 129.107Z" fill="#b1b1b1" fill-rule="nonzero" opacity="1" stroke="#000002" stroke-linecap="butt" stroke-linejoin="round" stroke-width="15.767"/>
<path d="M167.593 671.355C156.134 671.355 145.305 676.597 138.197 685.584L22.7839 831.507C3.34889 856.08 20.8503 892.236 52.1797 892.236L863.582 892.236C877.694 892.236 890.61 884.309 896.999 871.727L971.102 725.804C983.764 700.871 965.649 671.355 937.685 671.355L167.593 671.355Z" fill="#b1b1b1" fill-rule="nonzero" opacity="1" stroke="#000002" stroke-linecap="butt" stroke-linejoin="round" stroke-width="15.767"/>
<path d="M171.934 727.286L101.783 822.085L803.292 822.085L868.703 727.286L171.934 727.286Z" fill="#595959" fill-rule="nonzero" opacity="1" stroke="#000002" stroke-linecap="butt" stroke-linejoin="round" stroke-width="15.767"/>
<path d="M221.746 171.014C199.072 171.014 180.692 189.395 180.692 212.069L180.692 586.613C180.692 609.287 199.072 627.667 221.746 627.667L910.954 627.667C933.627 627.667 952.008 609.287 952.008 586.613L952.008 212.069C952.008 189.395 933.627 171.014 910.954 171.014L221.746 171.014Z" fill="#e8e8e8" fill-rule="nonzero" opacity="1" stroke="#000002" stroke-linecap="butt" stroke-linejoin="round" stroke-width="15.767"/>
<path d="M380.784 738.593C371.467 760.333 354.808 795.316 354.808 819.41" fill="none" opacity="1" stroke="#000002" stroke-linecap="round" stroke-linejoin="round" stroke-width="15.767"/>
<path d="M442.118 729.213C423.141 748.19 421.128 789.233 408.926 813.637" fill="none" opacity="1" stroke="#000002" stroke-linecap="round" stroke-linejoin="round" stroke-width="15.767"/>
<path d="M482.527 730.656C473.216 755.484 457.272 791.012 457.272 817.967" fill="none" opacity="1" stroke="#000002" stroke-linecap="round" stroke-linejoin="round" stroke-width="15.767"/>
<path d="M542.418 727.77C526.418 751.769 521.154 787.231 512.112 814.359" fill="none" opacity="1" stroke="#000002" stroke-linecap="round" stroke-linejoin="round" stroke-width="15.767"/>
<path d="M585.713 729.934C576.434 757.771 567.651 790.59 554.685 816.524" fill="none" opacity="1" stroke="#000002" stroke-linecap="round" stroke-linejoin="round" stroke-width="15.767"/>
<path d="M169.362 817.245C164.435 807.392 194.982 749.409 201.833 735.707" fill="none" opacity="1" stroke="#000002" stroke-linecap="round" stroke-linejoin="round" stroke-width="15.767"/>
<path d="M242.963 733.542C234.749 758.185 231.356 789.949 219.872 812.916" fill="none" opacity="1" stroke="#000002" stroke-linecap="round" stroke-linejoin="round" stroke-width="15.767"/>
<path d="M282.65 730.656C275.461 734.25 268.218 800.382 268.218 812.194" fill="none" opacity="1" stroke="#000002" stroke-linecap="round" stroke-linejoin="round" stroke-width="15.767"/>
<path d="M325.223 731.377C315.307 751.209 314.399 789.223 314.399 811.473" fill="none" opacity="1" stroke="#000002" stroke-linecap="round" stroke-linejoin="round" stroke-width="15.767"/>
<path d="M641.996 730.656C631.087 752.472 618.905 790.934 618.905 816.524" fill="none" opacity="1" stroke="#000002" stroke-linecap="round" stroke-linejoin="round" stroke-width="15.767"/>
<path d="M693.228 729.934C685.783 759.714 675.184 792.72 661.478 820.132" fill="none" opacity="1" stroke="#000002" stroke-linecap="round" stroke-linejoin="round" stroke-width="15.767"/>
<path d="M758.891 731.377C749.473 750.214 727.863 790.704 727.863 812.916" fill="none" opacity="1" stroke="#000002" stroke-linecap="round" stroke-linejoin="round" stroke-width="15.767"/>
<path d="M807.959 730.656C806.122 734.329 760.563 810.549 767.243 822.958" fill="none" opacity="1" stroke="#000002" stroke-linecap="round" stroke-linejoin="round" stroke-width="15.767"/>
<path d="M155.183 764.418C162.57 760.725 171.129 762.893 179.133 762.423C194.448 761.522 209.663 761.425 225.039 761.425C270.556 761.425 316.053 755.437 361.757 755.437C401.173 755.437 441.109 751.565 480.513 753.441C495.34 754.147 509.794 756.805 524.422 758.431C537.02 759.831 550.652 758.431 563.342 758.431C590.287 758.431 617.231 758.431 644.176 758.431C675.781 758.431 707.641 759.429 738.981 759.429C760.283 759.429 784.076 757.271 804.845 761.425C810.516 762.559 816.402 760.33 821.81 759.429C829.563 758.137 839.938 758.431 847.757 758.431" fill="none" opacity="1" stroke="#000002" stroke-linecap="round" stroke-linejoin="round" stroke-width="15.767"/>
<path d="M125.244 792.361C128.79 794.134 135.311 791.688 139.215 791.363C151.969 790.3 165.432 791.514 178.135 792.361C218.647 795.062 259.393 796.41 299.885 792.361C314.372 790.912 329.267 793.399 343.794 792.361C354.833 791.572 365.699 788.219 376.726 787.371C431.621 783.149 489.461 783.147 544.381 787.371C569.98 789.34 595.687 787.811 621.223 790.365C641.278 792.371 661.175 788.369 681.1 788.369C727.876 788.369 774.498 789.367 820.812 789.367" fill="none" opacity="1" stroke="#000002" stroke-linecap="round" stroke-linejoin="round" stroke-width="15.767"/>
<path d="M353.189 242.851C260.671 181.08 143.563 589.05 384.972 558.829" fill="#e8e8e8" fill-rule="nonzero" opacity="1" stroke="#000002" stroke-linecap="round" stroke-linejoin="round" stroke-width="15.767"/>
<path d="M412.184 250.447C421.57 316.248 439.298 384.476 457.92 448.418C466.874 479.165 469.975 569.452 484.277 540.805C491.568 526.201 508.157 382.428 515.284 382.428C524.448 382.428 541.175 541.425 564.122 558.661C595.423 582.172 583.545 482.573 588.928 443.76C597.933 378.823 614.509 301.618 614.509 236.473" fill="#e8e8e8" fill-rule="nonzero" opacity="1" stroke="#000002" stroke-linecap="round" stroke-linejoin="round" stroke-width="15.767"/>
<path d="M653.269 537.7C653.527 537.182 653.786 536.664 654.044 536.147" fill="#e8e8e8" fill-rule="nonzero" opacity="1" stroke="#000002" stroke-linecap="round" stroke-linejoin="round" stroke-width="15.767"/>
<path d="M741.491 467.205C712.607 452.787 689.109 522.838 710.299 528.597C766.226 543.797 750.468 297.099 748.929 487.76C748.82 501.36 756.012 519.44 754.267 531.784" fill="#e8e8e8" fill-rule="nonzero" opacity="1" stroke="#000002" stroke-linecap="round" stroke-linejoin="round" stroke-width="15.767"/>
<path d="M785.159 502.647C807.271 493.29 836.179 451.112 801.127 462.863C774.475 471.798 780.456 543.701 815.181 527.014" fill="#e8e8e8" fill-rule="nonzero" opacity="1" stroke="#000002" stroke-linecap="round" stroke-linejoin="round" stroke-width="15.767"/>
<path d="M852.633 463.908C846.367 470.939 857.502 494.092 859.328 502.64C873.551 569.205 878.713 482.595 891.571 463.944C891.894 463.476 892.479 463.26 892.933 462.918" fill="#e8e8e8" fill-rule="nonzero" opacity="1" stroke="#000002" stroke-linecap="round" stroke-linejoin="round" stroke-width="15.767"/>
</g>
</svg>
